{"title":"Ramaiya Vastavaiya (2013) SCamRip x264 MP3 [TMB] - Hindi","uid":8712182,"size":555373044,"categoryP":"video","categoryS":"movies","magnet":"?xt=urn:btih:d0972c35cddb7b861c3860cc01dfed10cd5dd06c&amp;dn=Ramaiya+Vastavaiya+%282013%29+SCamRip+x264+MP3+%5BTMB%5D+-+Hindi&amp;tr=udp%3A%2F%2Ftracker.openbittorrent.com%3A80&amp;tr=udp%3A%2F%2Fopen.demonii.com%3A1337&amp;tr=udp%3A%2F%2Ftracker.coppersurfer.tk%3A6969&amp;tr=udp%3A%2F%2Fexodus.desync.com%3A6969","seeders":0,"leechers":0,"uploader":"SJonam","files":2,"time":1374261342,"description":" &lt;a href=&quot;http://desibbrg.org/images/16358683858652693851.gif&quot; rel=&quot;nofollow&quot; target=&quot;_NEW&quot;&gt;http://desibbrg.org/images/16358683858652693851.gif&lt;/a&gt; &lt;a href=&quot;\nhttp://desibbrg.org/images/27823664122165065489.png&quot; rel=&quot;nofollow&quot; target=&quot;_NEW&quot;&gt;\nhttp://desibbrg.org/images/27823664122165065489.png&lt;/a&gt; &lt;a href=&quot;\nhttp://desibbrg.org/images/68001135227101581178.png&quot; rel=&quot;nofollow&quot; target=&quot;_NEW&quot;&gt;\nhttp://desibbrg.org/images/68001135227101581178.png&lt;/a&gt; &lt;a href=&quot;\nhttp://desibbrg.org/images/92726814059045863840.png&quot; rel=&quot;nofollow&quot; target=&quot;_NEW&quot;&gt;\nhttp://desibbrg.org/images/92726814059045863840.png&lt;/a&gt; &lt;a href=&quot;\nhttp://desibbrg.org/images/14293304753923026772.png&quot; rel=&quot;nofollow&quot; target=&quot;_NEW&quot;&gt;\nhttp://desibbrg.org/images/14293304753923026772.png&lt;/a&gt; &lt;a href=&quot;\nhttp://desibbrg.org/images/85732543976709742459.png&quot; rel=&quot;nofollow&quot; target=&quot;_NEW&quot;&gt;\nhttp://desibbrg.org/images/85732543976709742459.png&lt;/a&gt;\n\nMedia Info - \nGeneral\nComplete name                  : Ramaiya Vastavaiya (2013) SCamRip x264 MP3 [TMB].avi\nFormat                         : AVI\nFormat/Info                    : Audio Video Interleave\nFile size                      : 521 MiB\nDuration                       : 2h 7mn\nOverall bit rate               : 572 Kbps\nWriting application            : Lavf54.63.104\nSource                          : ICTV\n\nVideo\nFormat                         : AVC\nFormat/Info                    : Advanced Video Codec\nFormat profile                 : &lt;a class=&quot;__cf_email__&quot; href=&quot;/cdn-cgi/l/email-protection&quot; data-cfemail=&quot;0a476b63644a463b2439&quot;&gt;[email&amp;#160;protected]&lt;/a&gt;&lt;script cf-hash='f9e31' type=&quot;text/javascript&quot;&gt;\n/* &lt;![CDATA[ */!function(){try{var t=&quot;currentScript&quot;in document?document.currentScript:function(){for(var t=document.getElementsByTagName(&quot;script&quot;),e=t.length;e--;)if(t[e].getAttribute(&quot;cf-hash&quot;))return t[e]}();if(t&amp;&amp;t.previousSibling){var e,r,n,i,c=t.previousSibling,a=c.getAttribute(&quot;data-cfemail&quot;);if(a){for(e=&quot;&quot;,r=parseInt(a.substr(0,2),16),n=2;a.length-n;n+=2)i=parseInt(a.substr(n,2),16)^r,e+=String.fromCharCode(i);e=document.createTextNode(e),c.parentNode.replaceChild(e,c)}}}catch(u){}}();/* ]]&gt; */&lt;/script&gt;\nFormat settings, CABAC         : Yes\nFormat settings, ReFrames      : 1 frame\nCodec ID                       : H264\nDuration                       : 2h 7mn\nBit rate                       : 303 Kbps\nWidth                          : 384 pixels\nHeight                         : 152 pixels\nDisplay aspect ratio           : 2.526\nFrame rate mode                : Variable\nFrame rate                     : 25.000 fps\nColor space                    : YUV\nChroma subsampling             : 4:2:0\nBit depth                      : 8 bits\nScan type                      : Progressive\nBits/(Pixel*Frame)             : 0.208\nStream size                    : 276 MiB (53%)\nWriting library                : x264 core 129\n\nAudio\nFormat                         : MPEG Audio\nFormat version                 : Version 1\nFormat profile                 : Layer 3\nMode                           : Joint stereo\nMode extension                 : MS Stereo\nCodec ID                       : 55\nCodec ID/Hint                  : MP3\nDuration                       : 2h 7mn\nBit rate mode                  : Constant\nBit rate                       : 256 Kbps\nChannel(s)                     : 2 channels\nSampling rate                  : 48.0 KHz\nCompression mode               : Lossy\nStream size                    : 233 MiB (45%)\nAlignment                      : Aligned on interleaves\nInterleave, duration           : 24 ms (0.60 video frame)\nWriting library                : LAME3.99.5\n\nRipper : Manojvb\n\nSample in Torrent\n\nIf looking for better print wait till screener rip as it's just scamrip[/B] ;)\n\nSeeding will be very slow for first few hours.\n\n &lt;a href=&quot;\nhttp://desibbrg.org/images/48627592875446061657.gif&quot; rel=&quot;nofollow&quot; target=&quot;_NEW&quot;&gt;\nhttp://desibbrg.org/images/48627592875446061657.gif&lt;/a&gt;","torrent":{"xt":"urn:btih:d0972c35cddb7b861c3860cc01dfed10cd5dd06c","amp;dn":"Ramaiya+Vastavaiya+%282013%29+SCamRip+x264+MP3+%5BTMB%5D+-+Hindi","amp;tr":["udp%3A%2F%2Ftracker.openbittorrent.com%3A80","udp%3A%2F%2Fopen.demonii.com%3A1337","udp%3A%2F%2Ftracker.coppersurfer.tk%3A6969","udp%3A%2F%2Fexodus.desync.com%3A6969"],"infoHash":"d0972c35cddb7b861c3860cc01dfed10cd5dd06c","infoHashBuffer":{"type":"Buffer","data":[208,151,44,53,205,219,123,134,28,56,96,204,1,223,237,16,205,93,208,108]},"announce":[],"urlList":[]}}